<svg id="AZ-logo" xmlns="http://www.w3.org/2000/svg" xmlns:xlink="http://www.w3.org/1999/xlink" width="136.122" height="27.925" viewBox="0 0 136.122 27.925">
  <defs>
    <linearGradient id="linear-gradient" x1="-1.483" y1="2.186" x2="-1.483" y2="2.183" gradientUnits="objectBoundingBox">
      <stop offset="0" stop-color="#0e2041"/>
      <stop offset="1" stop-color="#29539b"/>
    </linearGradient>
    <linearGradient id="linear-gradient-2" x1="-21.168" y1="19.154" x2="-21.174" y2="19.161" gradientUnits="objectBoundingBox">
      <stop offset="0" stop-color="#fff"/>
      <stop offset="1" stop-color="#a7acad"/>
    </linearGradient>
    <linearGradient id="linear-gradient-3" x1="-16.681" y1="45.549" x2="-16.681" y2="45.465" gradientUnits="objectBoundingBox">
      <stop offset="0" stop-color="#a7acad"/>
      <stop offset="1" stop-color="#fff"/>
    </linearGradient>
  </defs>
  <g id="Group_1" data-name="Group 1" transform="translate(36.049 4.299)">
    <path id="Path_1" data-name="Path 1" d="M382.253,128.252h-4.43l-.673,2.043H373.5l4.554-12.5h4l4.536,12.5h-3.669Zm-2.215-6.7-1.328,4.039h2.675Z" transform="translate(-373.5 -115.851)" fill="#29539b"/>
    <path id="Path_2" data-name="Path 2" d="M509.21,111.88h3.472V125H509.21Z" transform="translate(-494.984 -110.552)" fill="#29539b"/>
    <path id="Path_3" data-name="Path 3" d="M560.075,141A3.225,3.225,0,0,1,563,142.506v-1.388h3.472v9.833c0,2.657-1.452,5-5.032,5-3.1,0-5.014-1.559-5.262-4.021H559.6c.142.637.744,1.009,1.63,1.009.974,0,1.772-.442,1.772-1.984v-1.276a3.226,3.226,0,0,1-2.924,1.506c-2.356,0-4.234-1.931-4.234-5.1S557.718,141,560.075,141Zm1.116,3.029a1.825,1.825,0,0,0-1.807,2.056,1.823,1.823,0,1,0,1.807-2.061Z" transform="translate(-536.726 -136.619)" fill="#29539b"/>
    <path id="Path_4" data-name="Path 4" d="M675.961,151.137a5.095,5.095,0,1,1,5.227-5.1A4.885,4.885,0,0,1,675.961,151.137Zm0-3.012c.886,0,1.7-.655,1.7-2.09,0-1.418-.8-2.073-1.677-2.073s-1.666.655-1.666,2.073C674.313,147.47,675.057,148.125,675.961,148.125Z" transform="translate(-639.609 -136.575)" fill="#29539b"/>
    <path id="Path_5" data-name="Path 5" d="M791.728,120.442l-5.19,7.033h5.19V130.3H782.64v-2.646l5.136-7.05H782.64v-2.8h9.088Z" transform="translate(-739.752 -115.851)" fill="#29539b"/>
    <path id="Path_6" data-name="Path 6" d="M886.888,151.137a5.094,5.094,0,0,1,0-10.187,4.7,4.7,0,0,1,5.014,4.978,6.256,6.256,0,0,1-.053.814h-6.573c.071,1.153.691,1.612,1.468,1.612a1.3,1.3,0,0,0,1.24-.78h3.7A4.711,4.711,0,0,1,886.888,151.137Zm-1.594-6.08h3.062a1.362,1.362,0,0,0-1.489-1.363,1.5,1.5,0,0,0-1.572,1.366Z" transform="translate(-828.554 -136.575)" fill="#29539b"/>
    <path id="Path_7" data-name="Path 7" d="M998.128,145.985a1.656,1.656,0,1,0-3.3,0v5.338H991.36v-9.945h3.472V142.8a3.587,3.587,0,0,1,3.029-1.505c2.306,0,3.738,1.63,3.738,4.234v5.8h-3.472Z" transform="translate(-926.593 -136.879)" fill="#29539b"/>
    <path id="Path_8" data-name="Path 8" d="M1104.59,101.016a2.042,2.042,0,0,1,4.057,0,2.047,2.047,0,0,1-4.057,0Zm.283,2.693h3.473v9.945h-3.473Z" transform="translate(-1027.954 -99.21)" fill="#29539b"/>
    <path id="Path_9" data-name="Path 9" d="M1154.142,124.429h-1.222v-2.888h1.222V119.13h3.491v2.411h1.806v2.888h-1.806v3.331c0,.531.229.761.814.761h1.009v2.964h-1.505c-2.2,0-3.809-.921-3.809-3.774Z" transform="translate(-1071.218 -117.042)" fill="#29539b"/>
    <path id="Path_10" data-name="Path 10" d="M1230.49,111.88h3.473v4.588a3.6,3.6,0,0,1,3.064-1.505c2.268,0,3.7,1.63,3.7,4.234V125h-3.472v-5.338a1.656,1.656,0,1,0-3.295,0V125h-3.473Z" transform="translate(-1140.656 -110.552)" fill="#29539b"/>
  </g>
  <g id="Group_5" data-name="Group 5">
    <path id="Path_11" data-name="Path 11" d="M8.451,27.925H2.016a2.013,2.013,0,0,1-1.752-3L13.681,1.027a2.044,2.044,0,0,1,.335-.449,1.961,1.961,0,0,1,.425-.321,2.038,2.038,0,0,1,1.98,0,1.956,1.956,0,0,1,.424.321,2.023,2.023,0,0,1,.348.449L30.612,24.922a2.013,2.013,0,0,1-1.755,3h-6.43a7.772,7.772,0,0,0-6.988-4.149A7.773,7.773,0,0,0,8.451,27.92Z" transform="translate(-0.003 0)" fill="url(#linear-gradient)"/>
    <path id="Path_12" data-name="Path 12" d="M163.81,194.7l1.812-2.281h.941l-1.673,2.28Z" transform="translate(-150.073 -176.284)" opacity="0.27" fill="url(#linear-gradient-2)"/>
    <path id="Path_13" data-name="Path 13" d="M173.069,152H175.9l-.8,1-2.756-.068Z" transform="translate(-157.897 -139.253)" opacity="0.22" fill="url(#linear-gradient-3)"/>
    <path id="Path_14" data-name="Path 14" d="M144.235,152.1l-3.13,3.969a.869.869,0,0,0,0,1.192,1.663,1.663,0,0,0,1.453.543l2.264-2.792,2.248-2.912Z" transform="translate(-129.057 -139.345)" fill="#fff"/>
    <path id="Path_15" data-name="Path 15" d="M165.8,192.59h2.576s.755.184.951.637a1.339,1.339,0,0,1,0,.936s-.257.694-.86.694H164Z" transform="translate(-150.247 -176.439)" fill="#fff"/>
    <path id="Path_16" data-name="Path 16" d="M144.507,124.85h4.467a1.037,1.037,0,0,1,1.037,1.037h0a1.037,1.037,0,0,1-1.037,1.037h-4.467a1.037,1.037,0,0,1-1.037-1.037h0A1.037,1.037,0,0,1,144.507,124.85Z" transform="translate(-131.439 -114.38)" fill="#fff"/>
  </g>
</svg>
