<svg xmlns="http://www.w3.org/2000/svg" width="1261.502" height="237.105" viewBox="0 0 1261.502 237.105">
  <g id="AZ-white-logo" transform="translate(-2577.664 -18636.563)">
    <g id="Group_25" data-name="Group 25" transform="translate(2524.131 18557.674)">
      <g id="Group_18" data-name="Group 18" transform="translate(50.841 74.921)">
        <path id="Subtraction_6" data-name="Subtraction 6" d="M73.377,241.074H22.721A20,20,0,0,1,5.284,211.279l110.7-197.1a19.959,19.959,0,0,1,34.875,0l110.7,197.1a20,20,0,0,1-17.438,29.795H193.475c-10.756-21.663-34.326-35.661-60.049-35.661s-49.293,14-60.049,35.661Z" transform="translate(0 0)" fill="#fff"/>
        <path id="Path_15" data-name="Path 15" d="M0,19.329,15.9,0l8.079.141L9.274,19.491Z" transform="matrix(1, -0.017, 0.017, 1, 118.497, 140.079)" fill="#fff" opacity="0.27"/>
        <path id="Path_14" data-name="Path 14" d="M471.87,905.963h24.362l-6.856,8.607-23.681-.583Z" transform="translate(-340.715 -795.281)" fill="#fff" opacity="0.22"/>
        <g id="Group_17" data-name="Group 17" transform="translate(102.3 91.117)">
          <path id="Path_13" data-name="Path 13" d="M483.567,883l-26.9,34.1s-4.538,4.409,0,10.244,12.448,4.668,12.448,4.668l19.451-23.989L507.883,883Z" transform="translate(-454.646 -863.362)" fill="#073c9e"/>
          <path id="Path_12" data-name="Path 12" d="M479.013,897.987h22.141s6.484,1.581,8.169,5.471a11.508,11.508,0,0,1,0,8.04s-2.2,5.965-7.391,5.965H463.55Z" transform="translate(-446.92 -849.174)" fill="#073c9e"/>
          <rect id="Rectangle_5" data-name="Rectangle 5" width="56.214" height="17.824" rx="8.912" transform="translate(1.867)" fill="#073c9e"/>
        </g>
      </g>
    </g>
    <g id="Group_26" data-name="Group 26" transform="translate(2511.027 18563.715)">
      <path id="Path_52" data-name="Path 52" d="M457,217.51H414.74L408.32,237H373.5l43.44-119.2h38.19L498.4,237h-35Zm-21.13-63.88L423.2,192.16h25.52Z" transform="translate(-0.03)" fill="#fff"/>
      <path id="Path_53" data-name="Path 53" d="M509.21,111.88h33.12V237H509.21Z" transform="translate(-0.03)" fill="#fff"/>
      <path id="Path_54" data-name="Path 54" d="M596.24,141c13.35,0,23,5.92,27.89,14.37V142.13h33.12v93.8c0,25.35-13.85,47.66-48,47.66-29.58,0-47.83-14.87-50.2-38.36h32.62c1.35,6.08,7.1,9.63,15.55,9.63,9.29,0,16.9-4.22,16.9-18.93V223.76c-4.9,8.45-14.54,14.37-27.89,14.37-22.48,0-40.39-18.42-40.39-48.67S573.76,141,596.24,141Zm10.65,28.9c-9.46,0-17.24,6.76-17.24,19.61,0,12.67,7.78,19.77,17.24,19.77,9.3,0,17.24-6.93,17.24-19.77,0-12.73-7.94-19.66-17.24-19.66Z" transform="translate(-0.03)" fill="#fff"/>
      <path id="Path_55" data-name="Path 55" d="M720.29,238.13c-28.23,0-49.52-18.42-49.52-48.67,0-30.09,21.46-48.51,49.69-48.51s49.69,18.42,49.69,48.51C770.15,219.71,748.51,238.13,720.29,238.13Zm0-28.73c8.45,0,16.22-6.25,16.22-19.94,0-13.53-7.6-19.78-16-19.78s-15.89,6.25-15.89,19.78c-.05,13.69,7.05,19.94,15.67,19.94Z" transform="translate(-0.03)" fill="#fff"/>
      <path id="Path_56" data-name="Path 56" d="M869.34,143l-49.51,67.09h49.51V237h-86.7V211.76l49-67.26h-49V117.8h86.7Z" transform="translate(-0.03)" fill="#fff"/>
      <path id="Path_57" data-name="Path 57" d="M930,238.13c-28,0-48.16-18.42-48.16-48.67,0-30.09,19.77-48.51,48.16-48.51,28.06,0,47.83,18.08,47.83,47.49a59.713,59.713,0,0,1-.508,7.767l-62.7.013c.68,11,6.59,15.38,14,15.38a12.37,12.37,0,0,0,11.83-7.44h35.32C971.42,223.59,953.67,238.13,930,238.13Zm-15.21-58H944c0-8.45-6.59-13-14.2-13-7.9.02-13.48,4.41-15,13.03Z" transform="translate(-0.03)" fill="#fff"/>
      <path id="Path_58" data-name="Path 58" d="M1055.92,186.08c0-11-6.09-17.41-15.55-17.41-9.8,0-15.89,6.42-15.89,17.41V237H991.36V142.13h33.12v13.52c5.58-8.11,15.55-14.36,28.9-14.36,22,0,35.66,15.55,35.66,40.39V237h-33.12Z" transform="translate(-0.03)" fill="#fff"/>
      <path id="Path_59" data-name="Path 59" d="M1104.59,116.44c0-9.63,7.6-17.23,19.43-17.23,11.66,0,19.27,7.6,19.27,17.23,0,9.47-7.61,16.91-19.27,16.91C1112.19,133.35,1104.59,125.91,1104.59,116.44Zm2.7,25.69h33.13V237h-33.13Z" transform="translate(-0.03)" fill="#fff"/>
      <path id="Path_60" data-name="Path 60" d="M1164.58,169.68h-11.66V142.13h11.66v-23h33.3v23h17.23v27.55h-17.23v31.78c0,5.07,2.19,7.26,7.77,7.26h9.63V237h-14.36c-21,0-36.34-8.79-36.34-36Z" transform="translate(-0.03)" fill="#fff"/>
      <path id="Path_61" data-name="Path 61" d="M1230.49,111.88h33.13v43.77c5.57-8.11,15.54-14.36,29.23-14.36,21.64,0,35.32,15.55,35.32,40.39V237h-33.12V186.08c0-11-6.08-17.41-15.55-17.41-9.8,0-15.88,6.42-15.88,17.41V237h-33.13Z" transform="translate(-0.03)" fill="#fff"/>
    </g>
  </g>
</svg>
